<svg width="146" height="33" viewBox="0 0 146 33" fill="none" xmlns="http://www.w3.org/2000/svg">
<path d="M33.1484 26.4057L35.8763 6.90859C37.396 6.75729 39.5147 6.68164 42.2323 6.68164C44.6146 6.68164 46.2643 7.05989 47.1816 7.81295C48.0989 8.56602 48.4206 9.92428 48.1365 11.8809C47.9312 13.2941 47.5273 14.3498 46.9283 15.0444C46.3293 15.7425 45.436 16.1482 44.2552 16.2583L44.2278 16.3992C46.8154 16.6056 47.8661 18.3593 47.3767 21.6569C47.0755 23.617 46.4389 24.934 45.4634 25.6114C44.4879 26.2888 42.8758 26.6292 40.6271 26.6292C37.3481 26.6326 34.8564 26.557 33.1484 26.4057ZM36.2152 24.205L40.2095 24.2325C41.7463 24.2325 42.8245 24.0124 43.444 23.5688C44.0635 23.1252 44.4674 22.2552 44.6522 20.9554C44.8405 19.5628 44.6933 18.624 44.2175 18.1426C43.7383 17.6612 42.7423 17.4136 41.2226 17.393H37.1736L36.2152 24.205ZM37.4816 15.2163H41.363C42.7115 15.2163 43.6836 14.9894 44.2757 14.5389C44.8678 14.0885 45.2546 13.2391 45.4429 11.9943C45.6106 10.808 45.46 10.0274 44.9911 9.64919C44.5221 9.27438 43.5569 9.08525 42.0954 9.08525H38.327L37.4816 15.2163Z" fill="white"/>
<path d="M60.3753 12.617H63.2162C62.203 17.101 60.8819 20.8972 59.2492 24.0057C57.7877 26.7945 56.3365 28.7717 54.9024 29.9408C53.4682 31.11 51.7569 31.863 49.7683 32.2L49.2617 30.2503C50.4631 29.9684 51.5104 29.5454 52.4106 28.978C53.3108 28.4141 54.1733 27.5544 54.9982 26.4059H53.7318C53.3005 26.4059 52.9343 26.289 52.6365 26.0517C52.3353 25.8179 52.1471 25.4912 52.0752 25.0752L49.4329 12.6135H52.3045L54.3855 23.7754C54.4403 24.0952 54.6285 24.2568 54.9469 24.2568H56.3262C56.4015 24.1261 56.5042 23.9301 56.6343 23.6791C56.7643 23.4246 56.8499 23.2596 56.8875 23.1839C58.5373 19.7384 59.701 16.2172 60.3753 12.617Z" fill="white"/>
<path d="M68.8139 14.735L67.7152 22.4788C67.6228 23.1391 67.6809 23.5861 67.8966 23.8199C68.1122 24.0572 68.5469 24.1741 69.2041 24.1741H71.2577L71.3706 26.2923C70.5458 26.5364 69.4779 26.6602 68.1635 26.6602C66.9451 26.6602 66.0688 26.3198 65.5349 25.6424C65.001 24.965 64.8161 23.9953 64.9873 22.7333L66.1133 14.735H63.6113L63.8646 12.7578L66.4248 12.6168L67.0169 8.57642H69.6901L69.1288 12.6168H73.349L73.0683 14.735H68.8139Z" fill="white"/>
<path d="M84.6505 24.1192L84.8182 25.9554C83.4868 26.4815 81.6009 26.7463 79.1639 26.7463C76.8193 26.7463 75.1969 26.1308 74.2968 24.8963C73.3966 23.6619 73.1159 21.7465 73.4514 19.1469C73.8073 16.4923 74.5329 14.6767 75.6316 13.707C76.7269 12.7373 78.5341 12.2524 81.0464 12.2524C83.1856 12.2524 84.6368 12.6307 85.4069 13.3838C86.177 14.1368 86.4577 15.2475 86.2523 16.7192C86.0264 18.0569 85.5028 19.0231 84.6779 19.6146C83.853 20.2095 82.5866 20.5705 80.8821 20.7012L76.1279 21.1241C76.1074 22.4239 76.3812 23.3042 76.9425 23.765C77.5039 24.2258 78.3869 24.4562 79.5849 24.4562C80.8615 24.4562 82.5489 24.3461 84.6505 24.1192ZM76.2956 19.0885L80.8821 18.6655C81.7446 18.6105 82.3744 18.4248 82.768 18.1153C83.1616 17.8058 83.4149 17.2625 83.5278 16.4888C83.6408 15.6051 83.4936 15.0584 83.0932 14.8486C82.6893 14.6423 81.8713 14.5391 80.6322 14.5391C79.2084 14.5391 78.1987 14.8349 77.61 15.4297C77.0144 16.0212 76.5763 17.2419 76.2956 19.0885Z" fill="white"/>
<path d="M92.5534 6.62671L91.7935 12.3349C91.6258 13.5796 91.3794 14.6319 91.0611 15.4984C91.9612 14.594 92.9504 13.8307 94.0285 13.2083C95.1067 12.5859 96.1061 12.2764 97.0234 12.2764C98.1119 12.2764 98.947 12.4793 99.5254 12.885C100.107 13.2908 100.518 14.0439 100.764 15.1442C101.007 16.2446 100.97 17.7576 100.652 19.6798C100.446 21.2237 100.155 22.4823 99.7787 23.452C99.4022 24.4217 98.9162 25.1438 98.3172 25.6149C97.7182 26.086 97.109 26.3955 96.4895 26.5468C95.87 26.6981 95.0725 26.7737 94.1004 26.7737C91.814 26.7737 89.5071 26.4333 87.1797 25.7559L89.8528 6.62671H92.5534ZM91.0063 17.6476L90.0787 24.4286C91.4273 24.4836 92.4301 24.5145 93.0873 24.5145C94.8671 24.5145 96.0411 24.2291 96.6024 23.6514C97.1638 23.0772 97.595 21.688 97.8962 19.4838C98.1598 17.4309 98.1872 16.1105 97.9818 15.5259C97.7764 14.9413 97.2425 14.6491 96.38 14.6491C95.0485 14.6525 93.2584 15.6497 91.0063 17.6476Z" fill="white"/>
<path d="M114.212 26.4057H112.072L112.185 23.8611C110.536 25.7833 108.568 26.7427 106.278 26.7427C104.607 26.7427 103.485 26.1959 102.903 25.1024C102.321 24.009 102.218 22.0868 102.595 19.3393C102.8 17.8125 103.091 16.5643 103.468 15.5946C103.844 14.6249 104.341 13.9028 104.96 13.4317C105.58 12.9606 106.216 12.6442 106.873 12.4861C107.53 12.3279 108.372 12.2454 109.406 12.2454C111.638 12.2454 113.88 12.4895 116.128 12.9812L114.212 26.4057ZM112.158 21.4334L113.144 14.594C111.419 14.5561 110.453 14.5389 110.248 14.5389C109.273 14.5389 108.533 14.5871 108.027 14.6799C107.52 14.7728 107.075 15.0135 106.692 15.402C106.309 15.7872 106.024 16.2823 105.846 16.8841C105.669 17.4859 105.494 18.373 105.326 19.5387C105.063 21.5916 105.032 22.912 105.227 23.4932C105.426 24.0777 105.963 24.37 106.846 24.37C107.708 24.37 108.55 24.1293 109.379 23.6479C110.197 23.1734 111.128 22.4341 112.158 21.4334Z" fill="white"/>
<path d="M121.301 12.617L121.16 15.5845C123.635 13.3631 125.802 12.249 127.657 12.249C128.82 12.249 129.7 12.5826 130.299 13.2531C130.898 13.9236 131.103 14.8796 130.918 16.1209L129.457 26.4059H126.756L128.078 16.7983C128.191 15.9318 128.156 15.3438 127.978 15.0309C127.8 14.7214 127.41 14.5632 126.811 14.5632C126.041 14.5632 125.24 14.8005 124.405 15.2682C123.57 15.7392 122.478 16.5129 121.129 17.5858L119.921 26.4025H117.193L119.134 12.6135H121.301V12.617Z" fill="white"/>
<path d="M142.902 12.6168H145.688C144.901 15.0858 143.381 17.1283 141.132 18.7479C141.413 19.1812 141.694 19.7279 141.978 20.3882L144.651 26.4058H141.724L139.082 20.0477C138.237 20.5016 137.152 21.0277 135.82 21.6295L135.119 26.4058H132.418L135.173 6.62671H137.901L136.662 15.8938C136.494 17.0252 136.193 18.153 135.762 19.2843C137.542 18.435 139.085 17.4447 140.389 16.303C141.687 15.1649 142.525 13.9373 142.902 12.6168Z" fill="white"/>
<path d="M13.4753 20.23H0V27.0007H13.4753V20.23Z" fill="white"/>
<path d="M20.1667 6.73682H6.69141V20.2747H20.1667V6.73682Z" fill="white"/>
<path d="M6.64631 0.199951H0.0917969V6.69211H6.64631V0.199951Z" fill="white"/>
<path d="M26.5812 0.199951H20.1191V6.69211H26.5812V0.199951Z" fill="white"/>
</svg>
