<svg width="312" height="195" viewBox="0 0 312 195" fill="none" xmlns="http://www.w3.org/2000/svg">
<g opacity="0.3">
<rect width="18.5568" height="18.5568" transform="matrix(1.19249e-08 -1 -1 -1.19249e-08 62.1777 76.0449)" fill="#D9D9D9"/>
<rect width="18.5568" height="18.5568" transform="matrix(1.19249e-08 -1 -1 -1.19249e-08 62.1777 57.4882)" fill="#D9D9D9" fill-opacity="0.5"/>
<rect width="18.5568" height="18.5568" transform="matrix(1.19249e-08 -1 -1 -1.19249e-08 43.6211 57.4882)" fill="#D9D9D9" fill-opacity="0.9"/>
<rect width="18.5568" height="18.5568" transform="matrix(1.19249e-08 -1 -1 -1.19249e-08 62.1777 38.9313)" fill="#D9D9D9" fill-opacity="0.9"/>
<rect width="18.5568" height="18.5568" transform="matrix(1.19249e-08 -1 -1 -1.19249e-08 62.1777 20.3746)" fill="#D9D9D9" fill-opacity="0.5"/>
<rect width="18.5568" height="18.5568" transform="matrix(1.19249e-08 -1 -1 -1.19249e-08 80.7344 20.3746)" fill="#D9D9D9" fill-opacity="0.9"/>
<rect width="18.5568" height="18.5568" transform="matrix(1.19249e-08 -1 -1 -1.19249e-08 26.1094 76.0449)" fill="#D9D9D9" fill-opacity="0.9"/>
</g>
<g opacity="0.3">
<rect width="18.5568" height="18.5568" transform="matrix(1.19249e-08 -1 -1 -1.19249e-08 293.443 194.51)" fill="#D9D9D9"/>
<rect width="18.5568" height="18.5568" transform="matrix(1.19249e-08 -1 -1 -1.19249e-08 293.443 175.953)" fill="#D9D9D9" fill-opacity="0.5"/>
<rect width="18.5568" height="18.5568" transform="matrix(1.19249e-08 -1 -1 -1.19249e-08 274.887 175.953)" fill="#D9D9D9" fill-opacity="0.9"/>
<rect width="18.5568" height="18.5568" transform="matrix(1.19249e-08 -1 -1 -1.19249e-08 293.443 157.396)" fill="#D9D9D9" fill-opacity="0.9"/>
<rect width="18.5568" height="18.5568" transform="matrix(1.19249e-08 -1 -1 -1.19249e-08 293.443 138.84)" fill="#D9D9D9" fill-opacity="0.5"/>
<rect width="18.5568" height="18.5568" transform="matrix(1.19249e-08 -1 -1 -1.19249e-08 312 138.84)" fill="#D9D9D9" fill-opacity="0.9"/>
<rect width="18.5568" height="18.5568" transform="matrix(1.19249e-08 -1 -1 -1.19249e-08 257.375 194.51)" fill="#D9D9D9" fill-opacity="0.9"/>
</g>
<path d="M162.887 157.477L172.552 154.884C172.295 157.776 171.665 160.468 170.501 162.693C167.625 168.19 164.093 170.97 160.342 171.894C156.576 172.823 152.485 171.906 148.45 169.796C144.415 167.685 141.33 164.846 139.945 161.223C138.565 157.615 138.835 153.128 141.711 147.631C143.124 144.93 145.548 142.484 148.428 140.331C151.303 138.181 154.605 136.342 157.737 134.846C160.867 133.35 163.818 132.201 165.986 131.425C167.07 131.037 167.957 130.743 168.573 130.547C168.764 130.486 168.929 130.434 169.065 130.392C169.065 130.394 169.066 130.395 169.067 130.397C169.163 130.704 169.303 131.154 169.47 131.727C169.806 132.873 170.257 134.508 170.714 136.46C171.612 140.296 172.534 145.341 172.673 150.309L162.495 156.568L162.887 157.477Z" stroke="#FF5031"/>
<mask id="path-16-inside-1_2151_5679" fill="white">
<path d="M160.778 156.403L160.49 156.953C157.108 163.339 153.414 167.77 149.455 170.179C149.398 170.215 149.34 170.247 149.283 170.283L149.121 170.014L148.969 169.754C153.307 167.185 156.947 162.251 159.899 156.683C159.996 156.504 160.094 156.323 160.187 156.139C161.416 153.77 162.522 151.303 163.506 148.859C163.584 148.67 163.66 148.477 163.737 148.285C165.018 145.051 166.087 141.88 166.943 139.088C167.005 138.891 167.064 138.692 167.121 138.496C168.551 133.764 169.345 130.209 169.515 129.42C169.537 129.324 169.548 129.27 169.551 129.258L169.848 129.32L169.852 129.318L170.153 129.382C170.15 129.394 170.115 129.574 170.04 129.903C169.767 131.135 168.991 134.463 167.713 138.719C167.654 138.911 167.596 139.109 167.534 139.307C166.841 141.573 166.014 144.079 165.047 146.657C164.805 147.305 164.559 147.94 164.31 148.564C164.236 148.758 164.159 148.95 164.082 149.139C163.019 151.782 161.917 154.203 160.778 156.403Z"/>
</mask>
<path d="M160.778 156.403L160.49 156.953C157.108 163.339 153.414 167.77 149.455 170.179C149.398 170.215 149.34 170.247 149.283 170.283L149.121 170.014L148.969 169.754C153.307 167.185 156.947 162.251 159.899 156.683C159.996 156.504 160.094 156.323 160.187 156.139C161.416 153.77 162.522 151.303 163.506 148.859C163.584 148.67 163.66 148.477 163.737 148.285C165.018 145.051 166.087 141.88 166.943 139.088C167.005 138.891 167.064 138.692 167.121 138.496C168.551 133.764 169.345 130.209 169.515 129.42C169.537 129.324 169.548 129.27 169.551 129.258L169.848 129.32L169.852 129.318L170.153 129.382C170.15 129.394 170.115 129.574 170.04 129.903C169.767 131.135 168.991 134.463 167.713 138.719C167.654 138.911 167.596 139.109 167.534 139.307C166.841 141.573 166.014 144.079 165.047 146.657C164.805 147.305 164.559 147.94 164.31 148.564C164.236 148.758 164.159 148.95 164.082 149.139C163.019 151.782 161.917 154.203 160.778 156.403Z" fill="white"/>
<path d="M160.778 156.403L161.664 156.866L161.666 156.863L160.778 156.403ZM160.49 156.953L161.374 157.422L161.376 157.417L160.49 156.953ZM149.455 170.179L148.935 169.325L148.928 169.329L148.92 169.334L149.455 170.179ZM149.283 170.283L148.426 170.799L148.953 171.675L149.817 171.128L149.283 170.283ZM149.121 170.014L148.258 170.519L148.264 170.53L149.121 170.014ZM148.969 169.754L148.459 168.894L147.604 169.4L148.105 170.259L148.969 169.754ZM159.899 156.683L159.02 156.206L159.015 156.214L159.899 156.683ZM160.187 156.139L159.299 155.678L159.294 155.688L160.187 156.139ZM163.506 148.859L162.581 148.477L162.578 148.485L163.506 148.859ZM163.737 148.285L164.666 148.654L164.666 148.653L163.737 148.285ZM166.943 139.088L165.989 138.79L165.987 138.795L166.943 139.088ZM167.121 138.496L166.164 138.207L166.161 138.216L167.121 138.496ZM169.515 129.42L168.541 129.192L168.539 129.201L168.537 129.209L169.515 129.42ZM169.551 129.258L169.754 128.279L168.806 128.081L168.579 129.023L169.551 129.258ZM169.848 129.32L169.645 130.299L169.9 130.352L170.148 130.274L169.848 129.32ZM169.852 129.318L170.059 128.34L169.803 128.286L169.553 128.364L169.852 129.318ZM170.153 129.382L171.125 129.617L171.367 128.616L170.359 128.403L170.153 129.382ZM170.04 129.903L169.065 129.681L169.064 129.686L170.04 129.903ZM167.713 138.719L168.669 139.012L168.671 139.007L167.713 138.719ZM167.534 139.307L166.579 139.009L166.578 139.014L167.534 139.307ZM165.047 146.657L164.11 146.306L164.11 146.307L165.047 146.657ZM164.31 148.564L163.381 148.192L163.378 148.2L163.375 148.208L164.31 148.564ZM164.082 149.139L163.157 148.757L163.154 148.766L164.082 149.139ZM159.892 155.939L159.604 156.49L161.376 157.417L161.664 156.866L159.892 155.939ZM159.606 156.485C156.265 162.794 152.677 167.048 148.935 169.325L149.975 171.033C154.151 168.492 157.95 163.884 161.374 157.422L159.606 156.485ZM148.92 169.334C148.907 169.342 148.892 169.351 148.861 169.369C148.834 169.385 148.792 169.41 148.748 169.438L149.817 171.128C149.83 171.12 149.846 171.111 149.877 171.092C149.903 171.077 149.946 171.052 149.99 171.024L148.92 169.334ZM150.139 169.767L149.978 169.499L148.264 170.53L148.426 170.799L150.139 169.767ZM149.984 169.51L149.832 169.249L148.105 170.259L148.258 170.519L149.984 169.51ZM149.478 170.615C154.057 167.903 157.805 162.768 160.782 157.151L159.015 156.214C156.089 161.734 152.556 166.468 148.459 168.894L149.478 170.615ZM160.778 157.159C160.874 156.983 160.979 156.789 161.08 156.589L159.294 155.688C159.209 155.857 159.118 156.025 159.02 156.206L160.778 157.159ZM161.075 156.599C162.32 154.197 163.44 151.7 164.434 149.232L162.578 148.485C161.604 150.906 160.511 153.343 159.299 155.678L161.075 156.599ZM164.43 149.24C164.511 149.044 164.59 148.845 164.666 148.654L162.807 147.916C162.73 148.109 162.656 148.296 162.581 148.477L164.43 149.24ZM164.666 148.653C165.96 145.39 167.037 142.193 167.899 139.381L165.987 138.795C165.137 141.568 164.077 144.713 162.807 147.916L164.666 148.653ZM167.898 139.385C167.962 139.18 168.023 138.974 168.081 138.777L166.161 138.216C166.104 138.41 166.048 138.602 165.989 138.79L167.898 139.385ZM168.078 138.786C169.518 134.021 170.318 130.439 170.492 129.63L168.537 129.209C168.371 129.98 167.584 133.507 166.164 138.207L168.078 138.786ZM170.489 129.647C170.501 129.593 170.511 129.55 170.517 129.519C170.521 129.504 170.523 129.491 170.525 129.484C170.525 129.482 170.526 129.48 170.526 129.479C170.526 129.478 170.526 129.478 170.526 129.478C170.526 129.478 170.526 129.478 170.526 129.478C170.526 129.479 170.526 129.48 170.526 129.481C170.525 129.482 170.524 129.486 170.523 129.492L168.579 129.023C168.576 129.036 168.573 129.047 168.572 129.051C168.571 129.056 168.57 129.062 168.569 129.066C168.567 129.075 168.565 129.084 168.563 129.096C168.558 129.118 168.551 129.15 168.541 129.192L170.489 129.647ZM169.347 130.237L169.645 130.299L170.052 128.341L169.754 128.279L169.347 130.237ZM170.148 130.274L170.152 130.272L169.553 128.364L169.549 128.366L170.148 130.274ZM169.646 130.297L169.947 130.36L170.359 128.403L170.059 128.34L169.646 130.297ZM169.181 129.147C169.177 129.164 169.173 129.179 169.173 129.179C169.172 129.184 169.172 129.189 169.171 129.192C169.169 129.199 169.167 129.211 169.165 129.221C169.16 129.244 169.154 129.276 169.145 129.317C169.127 129.4 169.101 129.522 169.065 129.681L171.015 130.125C171.054 129.955 171.082 129.822 171.102 129.73C171.112 129.684 171.119 129.648 171.124 129.623C171.127 129.61 171.128 129.602 171.13 129.596C171.133 129.579 171.13 129.597 171.125 129.617L169.181 129.147ZM169.064 129.686C168.794 130.902 168.025 134.205 166.755 138.432L168.671 139.007C169.958 134.722 170.739 131.369 171.016 130.119L169.064 129.686ZM166.757 138.427C166.694 138.633 166.641 138.813 166.579 139.009L168.489 139.604C168.551 139.406 168.615 139.189 168.669 139.012L166.757 138.427ZM166.578 139.014C165.89 141.265 165.068 143.751 164.11 146.306L165.983 147.008C166.959 144.406 167.793 141.881 168.49 139.599L166.578 139.014ZM164.11 146.307C163.871 146.948 163.628 147.576 163.381 148.192L165.238 148.935C165.491 148.305 165.739 147.662 165.984 147.006L164.11 146.307ZM163.375 148.208C163.305 148.393 163.231 148.577 163.157 148.757L165.006 149.52C165.087 149.323 165.167 149.122 165.244 148.919L163.375 148.208ZM163.154 148.766C162.101 151.383 161.013 153.775 159.89 155.943L161.666 156.863C162.822 154.631 163.936 152.18 165.009 149.512L163.154 148.766Z" fill="#FF5031" mask="url(#path-16-inside-1_2151_5679)"/>
<mask id="path-18-inside-2_2151_5679" fill="white">
<path d="M167.713 138.719C167.518 138.648 167.319 138.576 167.121 138.496C166.583 138.282 166.056 138.04 165.542 137.771C163.351 136.629 161.445 135.009 159.963 133.032C159.773 133.117 159.583 133.202 159.389 133.287C160.936 135.389 162.943 137.109 165.257 138.316C165.805 138.603 166.368 138.861 166.944 139.088C167.139 139.166 167.338 139.238 167.534 139.307C169.156 139.879 170.855 140.202 172.573 140.265C172.534 140.054 172.497 139.846 172.46 139.643C170.841 139.571 169.241 139.259 167.713 138.719Z"/>
</mask>
<path d="M167.713 138.719C167.518 138.648 167.319 138.576 167.121 138.496C166.583 138.282 166.056 138.04 165.542 137.771C163.351 136.629 161.445 135.009 159.963 133.032C159.773 133.117 159.583 133.202 159.389 133.287C160.936 135.389 162.943 137.109 165.257 138.316C165.805 138.603 166.368 138.861 166.944 139.088C167.139 139.166 167.338 139.238 167.534 139.307C169.156 139.879 170.855 140.202 172.573 140.265C172.534 140.054 172.497 139.846 172.46 139.643C170.841 139.571 169.241 139.259 167.713 138.719Z" fill="white"/>
<path d="M167.121 138.496L167.493 137.568L167.492 137.568L167.121 138.496ZM165.542 137.771L166.005 136.885L166.004 136.884L165.542 137.771ZM159.963 133.032L160.763 132.433L160.285 131.795L159.557 132.119L159.963 133.032ZM159.389 133.287L158.984 132.373L157.844 132.877L158.583 133.88L159.389 133.287ZM165.257 138.316L165.72 137.43L165.719 137.43L165.257 138.316ZM166.944 139.088L167.314 138.159L167.311 138.158L166.944 139.088ZM167.534 139.307L167.868 138.364L167.862 138.362L167.534 139.307ZM172.573 140.265L172.536 141.264L173.781 141.31L173.556 140.084L172.573 140.265ZM172.46 139.643L173.445 139.468L173.304 138.68L172.505 138.644L172.46 139.643ZM168.055 137.779C167.859 137.708 167.674 137.641 167.493 137.568L166.749 139.425C166.964 139.511 167.177 139.588 167.372 139.659L168.055 137.779ZM167.492 137.568C166.985 137.365 166.489 137.138 166.005 136.885L165.079 138.657C165.623 138.942 166.181 139.198 166.751 139.425L167.492 137.568ZM166.004 136.884C163.946 135.811 162.155 134.29 160.763 132.433L159.163 133.632C160.734 135.729 162.756 137.446 165.08 138.658L166.004 136.884ZM159.557 132.119C159.366 132.203 159.177 132.288 158.984 132.373L159.793 134.202C159.989 134.116 160.18 134.03 160.37 133.946L159.557 132.119ZM158.583 133.88C160.221 136.105 162.345 137.925 164.794 139.203L165.719 137.43C163.541 136.293 161.651 134.673 160.194 132.695L158.583 133.88ZM164.793 139.202C165.373 139.506 165.968 139.778 166.577 140.018L167.311 138.158C166.768 137.943 166.237 137.7 165.72 137.43L164.793 139.202ZM166.573 140.017C166.787 140.102 167 140.179 167.207 140.251L167.862 138.362C167.675 138.297 167.492 138.23 167.314 138.159L166.573 140.017ZM167.201 140.249C168.918 140.856 170.717 141.198 172.536 141.264L172.609 139.266C170.992 139.207 169.393 138.903 167.868 138.364L167.201 140.249ZM173.556 140.084C173.518 139.875 173.481 139.669 173.445 139.468L171.476 139.819C171.512 140.024 171.55 140.232 171.589 140.445L173.556 140.084ZM172.505 138.644C170.984 138.576 169.482 138.284 168.046 137.776L167.38 139.662C169.001 140.235 170.698 140.565 172.416 140.642L172.505 138.644Z" fill="#FF5031" mask="url(#path-18-inside-2_2151_5679)"/>
<mask id="path-20-inside-3_2151_5679" fill="white">
<path d="M164.311 148.564C164.117 148.476 163.926 148.383 163.738 148.285C163.679 148.257 163.619 148.226 163.562 148.196C161.19 146.955 159.153 145.159 157.625 142.961C156.098 140.763 155.124 138.228 154.787 135.572C154.594 135.676 154.401 135.78 154.209 135.887C154.591 138.596 155.612 141.175 157.189 143.41C158.766 145.646 160.853 147.473 163.277 148.741C163.353 148.781 163.43 148.821 163.507 148.859C163.7 148.956 163.891 149.049 164.083 149.139C167.073 150.513 170.395 150.997 173.652 150.533C173.649 150.326 173.646 150.12 173.64 149.912C170.465 150.38 167.223 149.911 164.311 148.564Z"/>
</mask>
<path d="M164.311 148.564C164.117 148.476 163.926 148.383 163.738 148.285C163.679 148.257 163.619 148.226 163.562 148.196C161.19 146.955 159.153 145.159 157.625 142.961C156.098 140.763 155.124 138.228 154.787 135.572C154.594 135.676 154.401 135.78 154.209 135.887C154.591 138.596 155.612 141.175 157.189 143.41C158.766 145.646 160.853 147.473 163.277 148.741C163.353 148.781 163.43 148.821 163.507 148.859C163.7 148.956 163.891 149.049 164.083 149.139C167.073 150.513 170.395 150.997 173.652 150.533C173.649 150.326 173.646 150.12 173.64 149.912C170.465 150.38 167.223 149.911 164.311 148.564Z" fill="white"/>
<path d="M163.738 148.285L164.202 147.399L164.181 147.387L164.159 147.377L163.738 148.285ZM163.562 148.196L164.026 147.31L164.026 147.31L163.562 148.196ZM154.787 135.572L155.779 135.446L155.596 134.002L154.314 134.691L154.787 135.572ZM154.209 135.887L153.719 135.016L153.123 135.351L153.219 136.027L154.209 135.887ZM163.277 148.741L162.813 149.627L162.813 149.627L163.277 148.741ZM163.507 148.859L163.958 147.966L163.949 147.961L163.939 147.956L163.507 148.859ZM164.083 149.139L163.658 150.044L163.665 150.047L164.083 149.139ZM173.652 150.533L173.793 151.523L174.665 151.399L174.652 150.518L173.652 150.533ZM173.64 149.912L174.639 149.884L174.608 148.758L173.494 148.922L173.64 149.912ZM164.723 147.652C164.546 147.573 164.373 147.488 164.202 147.399L163.275 149.171C163.48 149.278 163.688 149.379 163.9 149.475L164.723 147.652ZM164.159 147.377C164.126 147.362 164.087 147.342 164.026 147.31L163.099 149.082C163.152 149.11 163.233 149.153 163.317 149.192L164.159 147.377ZM164.026 147.31C161.797 146.144 159.882 144.456 158.447 142.39L156.804 143.532C158.424 145.862 160.584 147.766 163.099 149.082L164.026 147.31ZM158.447 142.39C157.011 140.324 156.096 137.942 155.779 135.446L153.795 135.698C154.152 138.513 155.184 141.201 156.804 143.532L158.447 142.39ZM154.314 134.691C154.122 134.794 153.92 134.902 153.719 135.016L154.699 136.759C154.881 136.657 155.066 136.557 155.261 136.453L154.314 134.691ZM153.219 136.027C153.623 138.893 154.704 141.622 156.372 143.987L158.006 142.834C156.521 140.729 155.559 138.299 155.199 135.748L153.219 136.027ZM156.372 143.987C158.041 146.352 160.249 148.286 162.813 149.627L163.74 147.855C161.457 146.661 159.492 144.94 158.006 142.834L156.372 143.987ZM162.813 149.627C162.887 149.666 162.979 149.714 163.076 149.761L163.939 147.956C163.88 147.928 163.819 147.897 163.74 147.855L162.813 149.627ZM163.056 149.751C163.257 149.853 163.457 149.95 163.658 150.044L164.508 148.234C164.324 148.147 164.142 148.059 163.958 147.966L163.056 149.751ZM163.665 150.047C166.829 151.502 170.345 152.014 173.793 151.523L173.511 149.543C170.444 149.98 167.316 149.524 164.501 148.23L163.665 150.047ZM174.652 150.518C174.649 150.312 174.645 150.099 174.639 149.884L172.64 149.94C172.646 150.14 172.649 150.34 172.652 150.548L174.652 150.518ZM173.494 148.922C170.512 149.362 167.467 148.922 164.731 147.656L163.891 149.471C166.98 150.9 170.419 151.397 173.786 150.901L173.494 148.922Z" fill="#FF5031" mask="url(#path-20-inside-3_2151_5679)"/>
<mask id="path-22-inside-4_2151_5679" fill="white">
<path d="M160.779 156.403C160.58 156.319 160.383 156.23 160.188 156.139C159.979 156.04 159.772 155.938 159.567 155.831C156.382 154.16 153.824 151.502 152.275 148.255C150.727 145.008 150.272 141.347 150.978 137.82C150.74 137.977 150.503 138.131 150.27 138.29C149.681 141.87 150.234 145.544 151.852 148.79C153.47 152.037 156.07 154.692 159.282 156.377C159.487 156.484 159.692 156.588 159.9 156.683C160.096 156.778 160.293 156.867 160.491 156.954C164.504 158.669 169.02 158.795 173.122 157.307C173.171 157.075 173.209 156.842 173.25 156.606C169.225 158.162 164.751 158.089 160.779 156.403Z"/>
</mask>
<path d="M160.779 156.403C160.58 156.319 160.383 156.23 160.188 156.139C159.979 156.04 159.772 155.938 159.567 155.831C156.382 154.16 153.824 151.502 152.275 148.255C150.727 145.008 150.272 141.347 150.978 137.82C150.74 137.977 150.503 138.131 150.27 138.29C149.681 141.87 150.234 145.544 151.852 148.79C153.47 152.037 156.07 154.692 159.282 156.377C159.487 156.484 159.692 156.588 159.9 156.683C160.096 156.778 160.293 156.867 160.491 156.954C164.504 158.669 169.02 158.795 173.122 157.307C173.171 157.075 173.209 156.842 173.25 156.606C169.225 158.162 164.751 158.089 160.779 156.403Z" fill="white"/>
<path d="M160.188 156.139L159.76 157.042L159.763 157.044L160.188 156.139ZM159.567 155.831L159.103 156.717L159.104 156.717L159.567 155.831ZM150.978 137.82L151.959 138.016L152.429 135.669L150.429 136.985L150.978 137.82ZM150.27 138.29L149.705 137.465L149.353 137.707L149.284 138.128L150.27 138.29ZM159.282 156.377L158.818 157.262L158.818 157.263L159.282 156.377ZM159.9 156.683L160.338 155.784L160.327 155.778L160.315 155.773L159.9 156.683ZM160.491 156.954L160.092 157.87L160.098 157.873L160.491 156.954ZM173.122 157.307L173.463 158.247L173.988 158.057L174.101 157.511L173.122 157.307ZM173.25 156.606L174.235 156.773L174.53 155.038L172.889 155.673L173.25 156.606ZM161.165 155.48C160.983 155.404 160.8 155.321 160.613 155.233L159.763 157.044C159.966 157.139 160.176 157.234 160.393 157.325L161.165 155.48ZM160.616 155.235C160.415 155.14 160.22 155.044 160.031 154.945L159.104 156.717C159.324 156.832 159.544 156.94 159.76 157.042L160.616 155.235ZM160.032 154.946C157.038 153.375 154.633 150.877 153.178 147.825L151.373 148.686C153.014 152.128 155.726 154.945 159.103 156.717L160.032 154.946ZM153.178 147.825C151.722 144.773 151.295 141.332 151.959 138.016L149.998 137.624C149.249 141.363 149.731 145.244 151.373 148.686L153.178 147.825ZM150.429 136.985C150.197 137.137 149.948 137.299 149.705 137.465L150.836 139.115C151.058 138.963 151.283 138.816 151.528 138.656L150.429 136.985ZM149.284 138.128C148.66 141.914 149.246 145.801 150.957 149.236L152.747 148.344C151.223 145.286 150.702 141.825 151.257 138.453L149.284 138.128ZM150.957 149.236C152.669 152.671 155.419 155.48 158.818 157.262L159.747 155.491C156.72 153.904 154.271 151.403 152.747 148.344L150.957 149.236ZM158.818 157.263C159.03 157.373 159.254 157.487 159.485 157.592L160.315 155.773C160.131 155.689 159.943 155.594 159.746 155.491L158.818 157.263ZM159.462 157.581C159.675 157.685 159.885 157.78 160.092 157.87L160.89 156.037C160.701 155.954 160.518 155.871 160.338 155.784L159.462 157.581ZM160.098 157.873C164.345 159.688 169.122 159.822 173.463 158.247L172.781 156.367C168.917 157.769 164.664 157.65 160.884 156.034L160.098 157.873ZM174.101 157.511C174.154 157.257 174.196 157.002 174.235 156.773L172.264 156.438C172.222 156.681 172.187 156.893 172.143 157.103L174.101 157.511ZM172.889 155.673C169.106 157.136 164.903 157.067 161.17 155.482L160.388 157.323C164.6 159.111 169.343 159.189 173.61 157.538L172.889 155.673Z" fill="#FF5031" mask="url(#path-22-inside-4_2151_5679)"/>
<path d="M41.2505 131.366C41.251 131.365 41.2516 131.363 41.2522 131.361C41.3884 131.403 41.5531 131.455 41.7438 131.516C42.3595 131.713 43.2471 132.006 44.3309 132.394C46.4994 133.17 49.45 134.319 52.5804 135.815C55.7124 137.312 59.0138 139.15 61.8893 141.3C64.769 143.453 67.1928 145.899 68.6062 148.6C71.4822 154.097 71.752 158.584 70.3723 162.192C68.9872 165.815 65.9018 168.654 61.8669 170.765C57.8321 172.876 53.7409 173.792 49.9749 172.864C46.2237 171.939 42.6922 169.159 39.8162 163.662C38.6519 161.437 38.0219 158.746 37.7651 155.854L47.4303 158.446L47.8217 157.537L37.6438 151.279C37.783 146.31 38.7045 141.265 39.603 137.429C40.0604 135.477 40.5107 133.842 40.8465 132.696C41.0143 132.123 41.1535 131.673 41.2505 131.366Z" stroke="#FF5031"/>
<path d="M40.2696 130.84C40.272 130.85 40.2744 130.861 40.2769 130.872C40.55 132.104 41.3256 135.432 42.604 139.689M40.2696 130.84L46.0073 149.533C45.7577 148.91 45.512 148.274 45.2702 147.626C44.3034 145.048 43.4755 142.543 42.7828 140.276C42.7448 140.154 42.7078 140.031 42.6713 139.91C42.6488 139.836 42.6264 139.762 42.604 139.689M40.2696 130.84L40.3838 130.816C40.386 130.826 40.3882 130.836 40.3905 130.846C40.3906 130.846 40.3906 130.847 40.3907 130.847C40.6644 132.076 41.4364 135.372 42.7167 139.608M40.2696 130.84L42.7167 139.608M42.604 139.689L42.7291 139.65M42.604 139.689L42.7292 139.651C42.7826 139.833 42.8378 140.019 42.8957 140.205C42.8991 140.216 42.9024 140.227 42.9057 140.237C42.9058 140.238 42.9059 140.238 42.906 140.238C43.5984 142.494 44.4289 144.995 45.3981 147.578C45.3982 147.578 45.3982 147.578 45.3982 147.578C45.6294 148.194 45.8685 148.815 46.1155 149.438L46.1156 149.438L46.1161 149.44C46.1218 149.454 46.1274 149.468 46.1331 149.482C46.1333 149.483 46.1336 149.484 46.1339 149.485C46.204 149.661 46.2754 149.84 46.348 150.016C46.3532 150.029 46.3584 150.042 46.3636 150.055C46.3638 150.056 46.3639 150.056 46.3641 150.056C47.3437 152.488 48.4453 154.943 49.6686 157.304L49.5388 157.372L42.7291 139.65M42.7291 139.65C42.7249 139.636 42.7208 139.622 42.7167 139.608M42.7291 139.65L42.7167 139.608M40.6539 130.25C40.6541 130.252 40.6544 130.253 40.6546 130.254L40.7661 130.227M40.6539 130.25L49.9828 157.142C49.9826 157.142 49.9824 157.141 49.9823 157.141C48.8514 154.957 47.757 152.551 46.6992 149.922L46.6992 149.922L46.6975 149.917C46.6925 149.905 46.6875 149.893 46.6825 149.881L46.8111 149.828M40.6539 130.25L40.7661 130.227M40.6539 130.25L46.5803 149.254M40.7661 130.227L40.7998 130.389L40.8021 130.389M40.7661 130.227C40.767 130.231 40.7685 130.238 40.7708 130.249C40.7764 130.275 40.7863 130.321 40.8021 130.389M40.8021 130.389L40.7999 130.389L40.8679 130.717L40.7595 130.739C40.7611 130.746 40.7627 130.754 40.7644 130.761L40.7651 130.764L40.765 130.764C41.0354 131.984 41.8037 135.281 43.0702 139.502L43.196 139.466M40.8021 130.389C40.9721 131.179 41.7656 134.733 43.196 139.466M43.196 139.466L43.0706 139.504C43.0746 139.517 43.0786 139.53 43.0826 139.544C43.1059 139.62 43.1286 139.695 43.1511 139.77C43.1838 139.878 43.2162 139.986 43.2501 140.095L43.3734 140.057M43.196 139.466C43.2533 139.661 43.312 139.86 43.3734 140.057M43.3734 140.057L43.2503 140.095C43.2536 140.106 43.2568 140.116 43.2601 140.127L43.261 140.13L43.2609 140.13C43.9513 142.389 44.7759 144.884 45.7384 147.451L45.7387 147.451C45.9735 148.081 46.2121 148.698 46.4542 149.304C46.4542 149.304 46.4542 149.304 46.4542 149.304C46.4599 149.318 46.4657 149.333 46.4714 149.347L46.4747 149.355L46.4746 149.355C46.5418 149.532 46.6113 149.707 46.682 149.88L46.8111 149.828M43.3734 140.057C44.2299 142.849 45.2986 146.021 46.5803 149.254M46.8111 149.828C46.7332 149.639 46.6568 149.447 46.5803 149.254M46.8111 149.828C47.7947 152.272 48.9013 154.739 50.13 157.108L46.5803 149.254M40.1671 130.365C40.1678 130.369 40.1687 130.373 40.1696 130.378C40.1777 130.417 40.1945 130.499 40.221 130.621L40.1671 130.365Z" fill="white" stroke="#FF5031"/>
<mask id="path-26-inside-5_2151_5679" fill="white">
<path d="M37.8566 140.612C37.8204 140.816 37.7829 141.023 37.7441 141.234C39.4624 141.171 41.1612 140.848 42.7825 140.276C42.9795 140.207 43.1777 140.135 43.3731 140.057C43.9487 139.83 44.5119 139.572 45.0603 139.285C47.3739 138.078 49.381 136.358 50.9283 134.257C50.734 134.171 50.5439 134.086 50.3538 134.001C48.872 135.978 46.9656 137.598 44.775 138.74C44.2613 139.009 43.7342 139.251 43.1957 139.466C42.9976 139.545 42.7993 139.617 42.6038 139.688C41.0755 140.228 39.4759 140.54 37.8566 140.612Z"/>
</mask>
<path d="M37.8566 140.612C37.8204 140.816 37.7829 141.023 37.7441 141.234C39.4624 141.171 41.1612 140.848 42.7825 140.276C42.9795 140.207 43.1777 140.135 43.3731 140.057C43.9487 139.83 44.5119 139.572 45.0603 139.285C47.3739 138.078 49.381 136.358 50.9283 134.257C50.734 134.171 50.5439 134.086 50.3538 134.001C48.872 135.978 46.9656 137.598 44.775 138.74C44.2613 139.009 43.7342 139.251 43.1957 139.466C42.9976 139.545 42.7993 139.617 42.6038 139.688C41.0755 140.228 39.4759 140.54 37.8566 140.612Z" fill="white"/>
<path d="M37.7441 141.234L36.7606 141.053L36.5357 142.279L37.7805 142.233L37.7441 141.234ZM42.7825 140.276L42.4548 139.331L42.4494 139.333L42.7825 140.276ZM43.3731 140.057L43.0059 139.127L43.0027 139.128L43.3731 140.057ZM45.0603 139.285L44.5977 138.399L44.597 138.399L45.0603 139.285ZM50.9283 134.257L51.7336 134.85L52.4725 133.846L51.3327 133.342L50.9283 134.257ZM50.3538 134.001L50.7603 133.088L50.0318 132.764L49.5536 133.402L50.3538 134.001ZM44.775 138.74L44.3126 137.853L44.3116 137.854L44.775 138.74ZM43.1957 139.466L42.8253 138.537L42.8239 138.537L43.1957 139.466ZM42.6038 139.688L42.937 140.631L42.9452 140.628L42.6038 139.688ZM36.8721 140.437C36.8363 140.638 36.7991 140.844 36.7606 141.053L38.7277 141.415C38.7668 141.202 38.8046 140.993 38.8411 140.788L36.8721 140.437ZM37.7805 142.233C39.6 142.167 41.3988 141.825 43.1156 141.219L42.4494 139.333C40.9237 139.872 39.3249 140.176 37.7078 140.235L37.7805 142.233ZM43.1102 141.22C43.3174 141.149 43.5304 141.071 43.7435 140.986L43.0027 139.128C42.825 139.199 42.6415 139.266 42.4548 139.331L43.1102 141.22ZM43.7404 140.987C44.3488 140.747 44.944 140.475 45.5237 140.172L44.597 138.399C44.0798 138.67 43.5487 138.912 43.0059 139.127L43.7404 140.987ZM45.523 140.172C47.9716 138.894 50.0959 137.074 51.7336 134.85L50.123 133.664C48.6661 135.642 46.7762 137.262 44.5977 138.399L45.523 140.172ZM51.3327 133.342C51.1397 133.257 50.9506 133.173 50.7603 133.088L49.9472 134.915C50.1371 135 50.3284 135.085 50.5239 135.171L51.3327 133.342ZM49.5536 133.402C48.1616 135.259 46.3706 136.78 44.3126 137.853L45.2374 139.627C47.5607 138.415 49.5825 136.698 51.1539 134.601L49.5536 133.402ZM44.3116 137.854C43.8282 138.107 43.3321 138.335 42.8253 138.537L43.5661 140.394C44.1363 140.167 44.6945 139.911 45.2384 139.626L44.3116 137.854ZM42.8239 138.537C42.6427 138.61 42.4585 138.677 42.2623 138.748L42.9452 140.628C43.1401 140.557 43.3525 140.48 43.5675 140.394L42.8239 138.537ZM42.2705 138.746C40.8352 139.253 39.3327 139.545 37.8118 139.613L37.9014 141.611C39.619 141.534 41.3159 141.204 42.937 140.631L42.2705 138.746Z" fill="#FF5031" mask="url(#path-26-inside-5_2151_5679)"/>
<path d="M46.9874 149.608L47.041 149.711L46.9874 149.608Z" fill="white" stroke="#FF5031"/>
<mask id="path-29-inside-6_2151_5679" fill="white">
<path d="M37.0684 157.575C37.1085 157.811 37.1472 158.044 37.1955 158.276C41.2983 159.764 45.8135 159.638 49.8268 157.923C50.0248 157.836 50.2214 157.747 50.4179 157.652C50.6254 157.557 50.8313 157.453 51.0358 157.346C54.2482 155.661 56.848 153.006 58.4657 149.759C60.0834 146.513 60.6369 142.839 60.0475 139.259C59.8147 139.1 59.5778 138.946 59.3395 138.789C60.046 142.316 59.591 145.977 58.0427 149.224C56.4943 152.471 53.9359 155.129 50.7505 156.8C50.546 156.907 50.3386 157.009 50.1298 157.108C49.9347 157.199 49.7381 157.288 49.5386 157.372C45.5664 159.058 41.0934 159.131 37.0684 157.575Z"/>
</mask>
<path d="M37.0684 157.575C37.1085 157.811 37.1472 158.044 37.1955 158.276C41.2983 159.764 45.8135 159.638 49.8268 157.923C50.0248 157.836 50.2214 157.747 50.4179 157.652C50.6254 157.557 50.8313 157.453 51.0358 157.346C54.2482 155.661 56.848 153.006 58.4657 149.759C60.0834 146.513 60.6369 142.839 60.0475 139.259C59.8147 139.1 59.5778 138.946 59.3395 138.789C60.046 142.316 59.591 145.977 58.0427 149.224C56.4943 152.471 53.9359 155.129 50.7505 156.8C50.546 156.907 50.3386 157.009 50.1298 157.108C49.9347 157.199 49.7381 157.288 49.5386 157.372C45.5664 159.058 41.0934 159.131 37.0684 157.575Z" fill="white"/>
<path d="M37.1955 158.276L36.2165 158.48L36.3303 159.026L36.8544 159.216L37.1955 158.276ZM49.8268 157.923L50.2199 158.842L50.226 158.84L49.8268 157.923ZM50.4179 157.652L50.0028 156.742L49.9911 156.747L49.9795 156.753L50.4179 157.652ZM51.0358 157.346L51.4994 158.232L51.5003 158.231L51.0358 157.346ZM60.0475 139.259L61.0342 139.097L60.9648 138.676L60.6127 138.434L60.0475 139.259ZM59.3395 138.789L59.889 137.954L57.8889 136.638L58.359 138.986L59.3395 138.789ZM50.7505 156.8L51.2141 157.686L51.2151 157.686L50.7505 156.8ZM50.1298 157.108L50.555 158.013L50.5576 158.012L50.1298 157.108ZM49.5386 157.372L49.1524 156.449L49.1478 156.451L49.5386 157.372ZM36.0825 157.742C36.1214 157.971 36.1636 158.226 36.2165 158.48L38.1744 158.072C38.1308 157.862 38.0956 157.65 38.0542 157.407L36.0825 157.742ZM36.8544 159.216C41.1957 160.791 45.9733 160.657 50.2199 158.842L49.4338 157.003C45.6537 158.619 41.4009 158.738 37.5365 157.336L36.8544 159.216ZM50.226 158.84C50.4325 158.75 50.6429 158.654 50.8563 158.55L49.9795 156.753C49.7999 156.84 49.6172 156.923 49.4276 157.006L50.226 158.84ZM50.8329 158.561C51.0641 158.456 51.2882 158.342 51.4994 158.232L50.5722 156.46C50.3744 156.563 50.1866 156.658 50.0028 156.742L50.8329 158.561ZM51.5003 158.231C54.8989 156.449 57.6493 153.64 59.3608 150.205L57.5707 149.314C56.0467 152.372 53.5976 154.873 50.5713 156.46L51.5003 158.231ZM59.3608 150.205C61.0722 146.77 61.6578 142.884 61.0342 139.097L59.0608 139.422C59.616 142.794 59.0946 146.255 57.5707 149.314L59.3608 150.205ZM60.6127 138.434C60.3697 138.268 60.1211 138.106 59.889 137.954L58.7901 139.625C59.0346 139.785 59.2596 139.932 59.4822 140.084L60.6127 138.434ZM58.359 138.986C59.0231 142.301 58.5954 145.742 57.14 148.794L58.9453 149.655C60.5866 146.213 61.069 142.332 60.3201 138.593L58.359 138.986ZM57.14 148.794C55.6847 151.846 53.28 154.344 50.2859 155.915L51.2151 157.686C54.5918 155.914 57.3039 153.097 58.9453 149.655L57.14 148.794ZM50.2869 155.914C50.0979 156.013 49.9032 156.109 49.702 156.204L50.5576 158.012C50.774 157.909 50.9941 157.801 51.2141 157.686L50.2869 155.914ZM49.7047 156.203C49.5177 156.29 49.3348 156.373 49.1525 156.449L49.9248 158.294C50.1414 158.204 50.3516 158.108 50.555 158.013L49.7047 156.203ZM49.1478 156.451C45.415 158.036 41.2115 158.105 37.429 156.642L36.7077 158.507C40.9752 160.158 45.7178 160.081 49.9295 158.292L49.1478 156.451Z" fill="#FF5031" mask="url(#path-29-inside-6_2151_5679)"/>
<path d="M88.0863 149.68C88.1554 149.444 88.2163 149.243 88.2663 149.081C88.2976 149.091 88.3305 149.102 88.3647 149.113C88.7294 149.229 89.2555 149.403 89.8983 149.633C91.1847 150.093 92.9346 150.775 94.7904 151.662C96.6477 152.549 98.6005 153.637 100.298 154.907C102 156.18 103.417 157.614 104.239 159.185C105.932 162.421 106.076 165.03 105.281 167.11C104.48 169.205 102.689 170.863 100.312 172.107C97.9356 173.35 95.552 173.875 93.3749 173.339C91.2126 172.806 89.1511 171.2 87.458 167.964C86.8196 166.743 86.4537 165.274 86.2871 163.68L91.7592 165.148L92.1507 164.239L86.1912 160.574C86.2845 157.673 86.8226 154.733 87.3488 152.487C87.6201 151.328 87.8872 150.359 88.0863 149.68Z" stroke="#FF5031"/>
<path d="M93.0674 164.313L93.2389 164.641C95.2525 168.442 97.4513 171.08 99.8082 172.514C99.8422 172.536 99.877 172.555 99.911 172.576L100.007 172.416L100.098 172.261C97.5154 170.732 95.348 167.795 93.5908 164.479C93.5331 164.373 93.4746 164.265 93.4193 164.156C92.6879 162.746 92.0291 161.277 91.4434 159.822C91.3971 159.709 91.3516 159.595 91.3061 159.48C90.543 157.555 89.9068 155.667 89.3969 154.005C89.3604 153.888 89.3254 153.769 89.2913 153.653C88.4398 150.836 87.9674 148.719 87.8662 148.249C87.8528 148.192 87.8465 148.16 87.8447 148.153L87.6676 148.19L87.6651 148.189L87.4863 148.227C87.4881 148.234 87.5089 148.341 87.5535 148.537C87.7161 149.271 88.1778 151.252 88.9389 153.785C88.9738 153.9 89.0087 154.018 89.0453 154.135C89.4577 155.485 89.9506 156.976 90.5262 158.511C90.6701 158.897 90.8164 159.275 90.9649 159.646C91.0089 159.762 91.0544 159.876 91.1007 159.989C91.7335 161.562 92.3891 163.003 93.0674 164.313Z" fill="#FF5031"/>
<path d="M86.1119 154.336C86.0903 154.456 86.068 154.58 86.0449 154.706C87.0679 154.668 88.0792 154.476 89.0444 154.135C89.1616 154.094 89.2797 154.051 89.396 154.005C89.7387 153.869 90.074 153.716 90.4004 153.545C91.7778 152.827 92.9726 151.803 93.8938 150.552C93.7781 150.501 93.6649 150.45 93.5517 150.4C92.6696 151.577 91.5347 152.541 90.2306 153.221C89.9248 153.381 89.611 153.525 89.2904 153.653C89.1724 153.7 89.0544 153.743 88.938 153.785C88.0282 154.107 87.0759 154.292 86.1119 154.336Z" fill="#FF5031"/>
<path d="M85.4095 160.448C85.406 160.572 85.4042 160.695 85.4023 160.818C87.3415 161.094 89.3191 160.806 91.0989 159.988C91.2134 159.934 91.3271 159.879 91.4416 159.821C91.4879 159.799 91.5334 159.775 91.5788 159.752C93.0218 158.997 94.2641 157.909 95.2029 156.578C96.1417 155.247 96.7499 153.712 96.9771 152.099C96.8629 152.035 96.7478 151.973 96.6328 151.911C96.4325 153.492 95.8528 155.002 94.9432 156.31C94.0336 157.619 92.8211 158.688 91.409 159.427C91.3749 159.445 91.3392 159.463 91.3042 159.48C91.1922 159.538 91.0785 159.594 90.9631 159.646C89.2294 160.448 87.2994 160.727 85.4095 160.448Z" fill="#FF5031"/>
<path d="M85.6426 164.434C85.6665 164.574 85.6895 164.713 85.7183 164.851C88.1608 165.737 90.8488 165.662 93.238 164.641C93.3559 164.589 93.4729 164.536 93.5899 164.479C93.7134 164.423 93.836 164.361 93.9578 164.297C95.8702 163.294 97.4179 161.714 98.381 159.781C99.3441 157.848 99.6735 155.661 99.3226 153.53C99.184 153.435 99.043 153.343 98.9012 153.25C99.3218 155.35 99.0509 157.529 98.1291 159.462C97.2073 161.395 95.6843 162.978 93.7879 163.973C93.6662 164.036 93.5427 164.097 93.4184 164.156C93.3022 164.21 93.1852 164.263 93.0665 164.313C90.7017 165.317 88.0388 165.36 85.6426 164.434Z" fill="#FF5031"/>
<path d="M208.779 107.083L208.752 107.081C203.852 106.272 198.409 106.272 192.112 107.082H192.109C191.952 107.084 191.796 107.055 191.65 106.996C191.505 106.937 191.372 106.85 191.26 106.74C191.148 106.63 191.059 106.499 190.998 106.354C190.937 106.209 190.905 106.054 190.904 105.897V100.193C190.905 99.8787 191.03 99.5771 191.252 99.3546C191.475 99.1321 191.776 99.007 192.091 99.0066C197.637 98.2835 203.253 98.2839 208.798 99.0079H208.801C209.112 99.0125 209.408 99.1395 209.627 99.3614C209.845 99.5833 209.966 99.8823 209.965 100.193V105.897C209.965 106.211 209.84 106.513 209.617 106.735C209.395 106.958 209.093 107.083 208.779 107.083Z" fill="white"/>
<path d="M208.779 107.083L208.752 107.081C203.852 106.272 198.409 106.272 192.112 107.082H192.109C191.952 107.084 191.796 107.055 191.65 106.996C191.505 106.937 191.372 106.85 191.26 106.74C191.148 106.63 191.059 106.499 190.998 106.354C190.937 106.209 190.905 106.054 190.904 105.897V100.193C190.905 99.8787 191.03 99.5771 191.252 99.3546C191.475 99.1321 191.776 99.007 192.091 99.0066C197.637 98.2835 203.253 98.2839 208.798 99.0079H208.801C209.112 99.0125 209.408 99.1395 209.627 99.3614C209.845 99.5833 209.966 99.8823 209.965 100.193V105.897C209.965 106.211 209.84 106.513 209.617 106.735C209.395 106.958 209.093 107.083 208.779 107.083ZM200.223 98.7884C197.511 98.7836 194.801 98.9639 192.113 99.3281C191.998 99.3263 191.884 99.3473 191.777 99.3898C191.67 99.4324 191.572 99.4958 191.49 99.5762C191.408 99.6566 191.342 99.7526 191.297 99.8585C191.252 99.9644 191.228 100.078 191.227 100.193V105.897C191.228 106.126 191.319 106.345 191.481 106.507C191.643 106.669 191.862 106.76 192.091 106.76C198.394 105.948 203.863 105.948 208.791 106.76C209.018 106.757 209.234 106.664 209.394 106.502C209.553 106.341 209.642 106.123 209.642 105.897V100.193C209.642 99.9644 209.551 99.7448 209.389 99.5829C209.227 99.421 209.008 99.3299 208.779 99.3297C205.941 98.9737 203.083 98.7929 200.223 98.7884Z" fill="#47A138"/>
<path d="M200.435 105.034C201.684 105.034 202.697 104.022 202.697 102.773C202.697 101.524 201.684 100.511 200.435 100.511C199.186 100.511 198.174 101.524 198.174 102.773C198.174 104.022 199.186 105.034 200.435 105.034Z" fill="#47A138"/>
<path d="M194.62 101.591H192.682C192.553 101.591 192.43 101.54 192.339 101.449C192.249 101.358 192.197 101.235 192.197 101.107V100.461C192.197 100.332 192.249 100.209 192.339 100.118C192.43 100.027 192.553 99.9761 192.682 99.976H194.62C194.749 99.9761 194.872 100.027 194.963 100.118C195.054 100.209 195.105 100.332 195.105 100.461V101.107C195.105 101.235 195.054 101.358 194.963 101.449C194.872 101.54 194.749 101.591 194.62 101.591Z" fill="#47A138"/>
<path d="M208.189 106.114H206.25C206.122 106.114 205.999 106.063 205.908 105.972C205.817 105.881 205.766 105.758 205.766 105.63V104.984C205.766 104.855 205.817 104.732 205.908 104.641C205.999 104.55 206.122 104.499 206.25 104.499H208.189C208.317 104.499 208.44 104.55 208.531 104.641C208.622 104.732 208.673 104.855 208.673 104.984V105.63C208.673 105.758 208.622 105.881 208.531 105.972C208.44 106.063 208.317 106.114 208.189 106.114Z" fill="#47A138"/>
<path d="M206.021 104.725L205.998 104.712C201.798 102.062 196.784 99.945 190.667 98.242L190.664 98.241C190.519 98.1816 190.387 98.094 190.275 97.9833C190.164 97.8725 190.075 97.7408 190.015 97.5958C189.955 97.4507 189.924 97.2951 189.924 97.138C189.924 96.9809 189.955 96.8253 190.016 96.6803L192.233 91.426C192.356 91.1363 192.589 90.907 192.88 90.7886C193.172 90.6701 193.498 90.6721 193.788 90.7942C199.179 92.2846 204.353 94.4691 209.18 97.2927L209.182 97.2935C209.467 97.4187 209.691 97.6512 209.805 97.9404C209.92 98.2296 209.916 98.5524 209.794 98.8386L207.576 104.093C207.454 104.383 207.221 104.612 206.929 104.73C206.638 104.849 206.311 104.847 206.021 104.725Z" fill="white"/>
<path d="M206.021 104.725L205.998 104.712C201.798 102.062 196.784 99.945 190.667 98.242L190.664 98.241C190.519 98.1816 190.387 98.094 190.275 97.9833C190.164 97.8725 190.075 97.7408 190.015 97.5958C189.955 97.4507 189.924 97.2951 189.924 97.138C189.924 96.9809 189.955 96.8253 190.016 96.6803L192.233 91.426C192.356 91.1363 192.589 90.907 192.88 90.7886C193.172 90.6701 193.498 90.6721 193.788 90.7942C199.179 92.2846 204.353 94.4691 209.18 97.2927L209.182 97.2935C209.467 97.4187 209.691 97.6512 209.805 97.9404C209.92 98.2296 209.916 98.5524 209.794 98.8386L207.576 104.093C207.454 104.383 207.221 104.612 206.929 104.73C206.638 104.849 206.311 104.847 206.021 104.725ZM201.365 93.7556C198.868 92.6963 196.302 91.8086 193.684 91.0989C193.578 91.0524 193.465 91.0273 193.35 91.025C193.235 91.0226 193.12 91.0431 193.013 91.0852C192.906 91.1272 192.808 91.1901 192.725 91.2702C192.643 91.3502 192.577 91.4459 192.531 91.5516L190.313 96.8059C190.224 97.017 190.223 97.2546 190.309 97.4668C190.395 97.6789 190.562 97.8482 190.773 97.9375C196.895 99.6407 201.935 101.768 206.159 104.432C206.369 104.517 206.604 104.516 206.814 104.429C207.023 104.342 207.19 104.176 207.279 103.967L209.497 98.713C209.585 98.5019 209.587 98.2642 209.501 98.0521C209.414 97.84 209.248 97.6707 209.037 97.5814C206.56 96.1498 203.998 94.8721 201.365 93.7556V93.7556Z" fill="#47A138"/>
<path d="M200.01 99.77C201.259 99.77 202.271 98.7575 202.271 97.5086C202.271 96.2596 201.259 95.2471 200.01 95.2471C198.761 95.2471 197.748 96.2596 197.748 97.5086C197.748 98.7575 198.761 99.77 200.01 99.77Z" fill="#47A138"/>
<path d="M195.111 94.1585L193.325 93.4047C193.207 93.3546 193.113 93.2596 193.065 93.1406C193.017 93.0216 193.017 92.8882 193.067 92.7698L193.319 92.1745C193.369 92.0562 193.464 91.9626 193.583 91.9142C193.702 91.8659 193.835 91.8667 193.953 91.9165L195.739 92.6704C195.858 92.7204 195.951 92.8154 196 92.9345C196.048 93.0535 196.047 93.1868 195.997 93.3053L195.746 93.9005C195.696 94.0189 195.601 94.1125 195.482 94.1608C195.363 94.2092 195.23 94.2084 195.111 94.1585Z" fill="#47A138"/>
<path d="M205.853 103.602L204.067 102.848C203.949 102.798 203.856 102.703 203.807 102.584C203.759 102.465 203.76 102.332 203.809 102.214L204.061 101.618C204.111 101.5 204.206 101.406 204.325 101.358C204.444 101.31 204.577 101.31 204.696 101.36L206.481 102.114C206.6 102.164 206.693 102.259 206.742 102.378C206.79 102.497 206.789 102.631 206.739 102.749L206.488 103.344C206.438 103.463 206.343 103.556 206.224 103.605C206.105 103.653 205.972 103.652 205.853 103.602Z" fill="#47A138"/>
<path d="M216.068 87.2121L210.807 96.4331L210.631 96.7421L210.865 97.0099C211.129 97.3125 211.324 97.6693 211.436 98.0554C211.548 98.4414 211.573 98.8472 211.511 99.2442C211.449 99.6412 211.3 100.02 211.076 100.353C210.859 100.676 210.576 100.948 210.246 101.153L210.21 101.176C209.632 101.529 208.945 101.657 208.278 101.537C207.612 101.417 207.012 101.057 206.594 100.525C206.175 99.9924 205.966 99.325 206.007 98.649C206.048 97.973 206.335 97.3354 206.814 96.857L206.875 96.7961L206.912 96.7184L211.301 87.5201L216.068 87.2121Z" stroke="black"/>
<path d="M254.014 155.185L254.013 169.462H250.994L249.233 155.184L254.014 155.185Z" stroke="black"/>
<path d="M255.523 173.801L242.752 173.801V173.639C242.752 172.321 243.276 171.056 244.208 170.124C245.14 169.192 246.405 168.668 247.723 168.668H247.723L255.523 168.669L255.523 173.801Z" fill="#2F2E41"/>
<path d="M226.875 155.185L226.874 169.462H223.856L222.095 155.184L226.875 155.185Z" stroke="black"/>
<path d="M228.384 173.801L215.613 173.801V173.639C215.613 172.321 216.137 171.056 217.069 170.124C218.002 169.192 219.266 168.668 220.584 168.668H220.585L228.385 168.669L228.384 173.801Z" fill="#2F2E41"/>
<path d="M217.191 87.0842C217.191 87.0842 216.101 102.598 218.247 110.412C220.393 118.225 220.776 165.476 220.776 165.476H227.968L234.201 101.158L248.572 165.703L255.423 165.232L251.666 89.174L217.191 87.0842Z" fill="#2F2E41"/>
<path d="M248.693 34.7866L243.195 30.7744L233.982 32.7805L231.488 38.7063L227.191 40.837C225.778 41.5375 224.556 42.5707 223.631 43.8477C222.705 45.1247 222.104 46.6073 221.878 48.1681L215.738 90.5629L251.665 89.174L256.015 39.246C256.06 38.7245 256.001 38.1991 255.839 37.7011C255.678 37.203 255.419 36.7423 255.076 36.3463C254.734 35.9502 254.316 35.6269 253.846 35.3955C253.376 35.164 252.865 35.0291 252.343 34.9987L248.693 34.7866Z" fill="#CBCBCB"/>
<path d="M224.918 44.1484L221.599 48.6216L207.146 92.7028L213.921 95.4153L224.769 74.8742L224.918 44.1484Z" fill="#CBCBCB"/>
<path d="M247.294 17.1858C247.294 22.9828 242.594 27.6822 236.797 27.6822C231 27.6822 226.301 22.9828 226.301 17.1858C226.301 11.3888 231 6.68945 236.797 6.68945C242.594 6.68945 247.294 11.3888 247.294 17.1858Z" stroke="black"/>
<path d="M236.944 28.6797C241.376 28.6797 244.969 25.0871 244.969 20.6554C244.969 16.2236 241.376 12.631 236.944 12.631C232.513 12.631 228.92 16.2236 228.92 20.6554C228.92 25.0871 232.513 28.6797 236.944 28.6797Z" fill="#389429"/>
<path d="M241.646 6.24118C241.646 9.41195 239.076 11.9824 235.905 11.9824C232.734 11.9824 230.164 9.41195 230.164 6.24118C230.164 3.07041 232.734 0.5 235.905 0.5C239.076 0.5 241.646 3.07041 241.646 6.24118Z" stroke="black"/>
<path d="M245.167 14.27C245.134 15.8725 244.702 17.4052 243.959 18.5501C243.217 19.6949 242.221 20.364 241.178 20.4185C241.242 20.4244 241.306 20.436 241.371 20.4373C242.447 20.4586 243.493 19.8216 244.277 18.6664C245.061 17.5113 245.52 15.9326 245.553 14.2776C245.586 12.6227 245.19 11.0271 244.452 9.84178C243.714 8.65651 242.694 7.97866 241.618 7.95736C241.553 7.95607 241.489 7.96513 241.424 7.96854C242.464 8.06417 243.433 8.77213 244.13 9.94548C244.826 11.1188 245.198 12.6674 245.167 14.27Z" fill="black"/>
<path opacity="0.1" d="M251.376 46.6871L249.137 69.0064L241.23 84.5896L251.376 46.6871Z" fill="black"/>
<path d="M14.7001 115.38H12.7617V116.995H14.7001V115.38Z" fill="#F0F0F0"/>
<path d="M198.051 116.995H194.231V115.38H198.051V116.995ZM190.411 116.995H186.591V115.38H190.411V116.995ZM182.772 116.995H178.952V115.38H182.772V116.995ZM175.132 116.995H171.312V115.38H175.132V116.995ZM167.492 116.995H163.673V115.38H167.492V116.995ZM159.853 116.995H156.033V115.38H159.853L159.853 116.995ZM152.213 116.995H148.393V115.38H152.213V116.995ZM144.573 116.995H140.754V115.38H144.573V116.995ZM136.934 116.995H133.114V115.38H136.934V116.995ZM129.294 116.995H125.474V115.38H129.294L129.294 116.995ZM121.655 116.995H117.835V115.38H121.655L121.655 116.995ZM114.015 116.995H110.195V115.38H114.015L114.015 116.995ZM106.375 116.995H102.555V115.38H106.375L106.375 116.995ZM98.7355 116.995H94.9159V115.38H98.7356L98.7355 116.995ZM91.0959 116.995H87.2763V115.38H91.096L91.0959 116.995ZM83.4563 116.995H79.6365V115.38H83.4564L83.4563 116.995ZM75.8167 116.995H71.9969V115.38H75.8168L75.8167 116.995ZM68.1771 116.995H64.3573V115.38H68.1772L68.1771 116.995ZM60.5374 116.995H56.7177V115.38H60.5374L60.5374 116.995ZM52.8977 116.995H49.0781V115.38H52.8978L52.8977 116.995ZM45.2581 116.995H41.4385V115.38H45.2582L45.2581 116.995ZM37.6185 116.995H33.7988V115.38H37.6186L37.6185 116.995ZM29.9789 116.995H26.1592V115.38H29.979L29.9789 116.995ZM22.3393 116.995H18.5195V115.38H22.3394L22.3393 116.995Z" fill="#F8F8F8"/>
<path d="M14.7001 74.3501H12.7617V75.9654H14.7001V74.3501Z" fill="#F0F0F0"/>
<path d="M197.937 76.1169H194.118V74.5016H197.937V76.1169ZM190.298 76.1169H186.478V74.5016H190.298V76.1169ZM182.658 76.1169H178.839V74.5016H182.658V76.1169ZM175.019 76.1169H171.199V74.5016H175.019V76.1169ZM167.379 76.1169H163.559V74.5016H167.379V76.1169ZM159.739 76.1169H155.92V74.5016H159.739L159.739 76.1169ZM152.1 76.1169H148.28V74.5016H152.1V76.1169ZM144.46 76.1169H140.64V74.5016H144.46V76.1169ZM136.82 76.1169H133.001V74.5016H136.82V76.1169ZM129.181 76.1169H125.361V74.5016H129.181L129.181 76.1169ZM121.541 76.1169H117.721V74.5016H121.541L121.541 76.1169ZM113.902 76.1169H110.082V74.5016H113.902L113.902 76.1169ZM106.262 76.1169H102.442V74.5016H106.262L106.262 76.1169ZM98.6223 76.1169H94.8026V74.5016H98.6223L98.6223 76.1169ZM90.9827 76.1169H87.163V74.5016H90.9827L90.9827 76.1169ZM83.343 76.1169H79.5232V74.5016H83.3431L83.343 76.1169ZM75.7034 76.1169H71.8836V74.5016H75.7035L75.7034 76.1169ZM68.0638 76.1169H64.244V74.5016H68.0639L68.0638 76.1169ZM60.4241 76.1169H56.6044V74.5016H60.4242L60.4241 76.1169ZM52.7845 76.1169H48.9648V74.5016H52.7845L52.7845 76.1169ZM45.1449 76.1169H41.3252V74.5016H45.1449L45.1449 76.1169ZM37.5052 76.1169H33.6855V74.5016H37.5054L37.5052 76.1169ZM29.8656 76.1169H26.0459V74.5016H29.8658L29.8656 76.1169ZM22.226 76.1169H18.4062V74.5016H22.2261L22.226 76.1169Z" fill="#F8F8F8"/>
<path d="M197.937 32.6123H194.118V30.9969H197.937V32.6123ZM190.298 32.6123H186.478V30.9969H190.298V32.6123ZM182.658 32.6123H178.839V30.9969H182.658V32.6123ZM175.019 32.6123H171.199V30.9969H175.019V32.6123ZM167.379 32.6123H163.559V30.9969H167.379V32.6123ZM159.739 32.6123H155.92V30.9969H159.739L159.739 32.6123ZM152.1 32.6123H148.28V30.9969H152.1V32.6123ZM144.46 32.6123H140.64V30.9969H144.46V32.6123ZM136.82 32.6123H133.001V30.9969H136.82V32.6123ZM129.181 32.6123H125.361V30.9969H129.181L129.181 32.6123ZM121.541 32.6123H117.721V30.9969H121.541L121.541 32.6123ZM113.902 32.6123H110.082V30.9969H113.902L113.902 32.6123ZM106.262 32.6123H102.442V30.9969H106.262L106.262 32.6123ZM98.6223 32.6123H94.8026V30.9969H98.6223L98.6223 32.6123ZM90.9827 32.6123H87.163V30.9969H90.9827L90.9827 32.6123ZM83.343 32.6123H79.5232V30.9969H83.3431L83.343 32.6123ZM75.7034 32.6123H71.8836V30.9969H75.7035L75.7034 32.6123ZM68.0638 32.6123H64.244V30.9969H68.0639L68.0638 32.6123ZM60.4241 32.6123H56.6044V30.9969H60.4242L60.4241 32.6123ZM52.7845 32.6123H48.9648V30.9969H52.7845L52.7845 32.6123ZM45.1449 32.6123H41.3252V30.9969H45.1449L45.1449 32.6123ZM37.5052 32.6123H33.6855V30.9969H37.5054L37.5052 32.6123ZM29.8656 32.6123H26.0459V30.9969H29.8658L29.8656 32.6123ZM22.226 32.6123H18.4062V30.9969H22.2261L22.226 32.6123Z" fill="#F8F8F8"/>
<path d="M75.9202 115.865H60.0898V174.017H75.9202V115.865Z" fill="#3F3D56"/>
<path d="M78.8284 115.865H62.998V174.017H78.8284V115.865Z" fill="#47A138"/>
<path d="M113.397 74.8347H97.5664V174.017H113.397V74.8347Z" fill="#3F3D56"/>
<path d="M116.305 74.8347H100.475V174.017H116.305V74.8347Z" fill="#47A138"/>
<path d="M150.873 33.8051H135.043V174.017H150.873V33.8051Z" fill="#3F3D56"/>
<path d="M153.782 33.8051H137.951V174.017H153.782V33.8051Z" fill="#47A138"/>
<path d="M12.9237 79.0347C15.0648 79.0347 16.8005 77.2989 16.8005 75.1578C16.8005 73.0167 15.0648 71.281 12.9237 71.281C10.7826 71.281 9.04688 73.0167 9.04688 75.1578C9.04688 77.2989 10.7826 79.0347 12.9237 79.0347Z" fill="#F8F8F8"/>
<path d="M12.9237 35.53C15.0648 35.53 16.8005 33.7943 16.8005 31.6532C16.8005 29.5121 15.0648 27.7764 12.9237 27.7764C10.7826 27.7764 9.04688 29.5121 9.04688 31.6532C9.04688 33.7943 10.7826 35.53 12.9237 35.53Z" fill="#F8F8F8"/>
<path d="M12.9237 120.064C15.0648 120.064 16.8005 118.329 16.8005 116.188C16.8005 114.047 15.0648 112.311 12.9237 112.311C10.7826 112.311 9.04688 114.047 9.04688 116.188C9.04688 118.329 10.7826 120.064 12.9237 120.064Z" fill="#F8F8F8"/>
<path d="M286.885 173.655H0V174.379H286.885V173.655Z" fill="#47A138"/>
<path d="M242.054 99.976L242.028 99.9738C237.128 99.1647 231.685 99.165 225.387 99.9748H225.384C225.227 99.9766 225.071 99.9474 224.926 99.8887C224.78 99.83 224.647 99.7431 224.535 99.6329C224.423 99.5227 224.334 99.3914 224.273 99.2466C224.212 99.1018 224.18 98.9464 224.18 98.7893V93.0861C224.18 92.7714 224.305 92.4698 224.528 92.2473C224.75 92.0248 225.052 91.8997 225.366 91.8993C230.912 91.1762 236.528 91.1766 242.074 91.9006H242.076C242.387 91.9052 242.684 92.0322 242.902 92.2541C243.12 92.476 243.242 92.775 243.241 93.0861V98.7893C243.24 99.1039 243.115 99.4056 242.893 99.628C242.67 99.8505 242.369 99.9757 242.054 99.976Z" fill="white"/>
<path d="M242.054 99.976L242.028 99.9738C237.128 99.1647 231.685 99.165 225.387 99.9748H225.384C225.227 99.9766 225.071 99.9474 224.926 99.8887C224.78 99.83 224.647 99.7431 224.535 99.6329C224.423 99.5227 224.334 99.3914 224.273 99.2466C224.212 99.1018 224.18 98.9464 224.18 98.7893V93.0861C224.18 92.7714 224.305 92.4698 224.528 92.2473C224.75 92.0248 225.052 91.8997 225.366 91.8993C230.912 91.1762 236.528 91.1766 242.074 91.9006H242.076C242.387 91.9052 242.684 92.0322 242.902 92.2541C243.12 92.476 243.242 92.775 243.241 93.0861V98.7893C243.24 99.1039 243.115 99.4056 242.893 99.628C242.67 99.8505 242.369 99.9757 242.054 99.976ZM233.498 91.6811C230.786 91.6763 228.076 91.8566 225.388 92.2208C225.273 92.219 225.159 92.24 225.052 92.2825C224.945 92.3251 224.848 92.3885 224.765 92.4689C224.683 92.5493 224.617 92.6453 224.572 92.7512C224.527 92.8571 224.504 92.9709 224.503 93.0861V98.7893C224.503 99.0183 224.594 99.2378 224.756 99.3997C224.918 99.5616 225.137 99.6527 225.366 99.653C231.669 98.8412 237.139 98.841 242.067 99.6528C242.293 99.6492 242.51 99.5567 242.669 99.3952C242.828 99.2337 242.917 99.0161 242.918 98.7893V93.0861C242.917 92.8571 242.826 92.6375 242.664 92.4756C242.503 92.3137 242.283 92.2226 242.054 92.2224C239.216 91.8664 236.359 91.6856 233.498 91.6811Z" fill="#47A138"/>
<path d="M233.711 97.9268C234.96 97.9268 235.972 96.9143 235.972 95.6653C235.972 94.4163 234.96 93.4038 233.711 93.4038C232.462 93.4038 231.449 94.4163 231.449 95.6653C231.449 96.9143 232.462 97.9268 233.711 97.9268Z" fill="#47A138"/>
<path d="M227.896 94.4839H225.957C225.829 94.4837 225.706 94.4326 225.615 94.3418C225.524 94.2509 225.473 94.1278 225.473 93.9993V93.3531C225.473 93.2247 225.524 93.1015 225.615 93.0106C225.706 92.9198 225.829 92.8687 225.957 92.8685H227.896C228.024 92.8687 228.147 92.9198 228.238 93.0106C228.329 93.1015 228.38 93.2247 228.38 93.3531V93.9993C228.38 94.1278 228.329 94.2509 228.238 94.3418C228.147 94.4326 228.024 94.4837 227.896 94.4839Z" fill="#47A138"/>
<path d="M241.464 99.0068H239.526C239.397 99.0067 239.274 98.9556 239.183 98.8647C239.092 98.7739 239.041 98.6507 239.041 98.5222V97.8761C239.041 97.7476 239.092 97.6244 239.183 97.5336C239.274 97.4427 239.397 97.3916 239.526 97.3915H241.464C241.593 97.3916 241.716 97.4427 241.807 97.5336C241.897 97.6244 241.948 97.7476 241.949 97.8761V98.5222C241.948 98.6507 241.897 98.7739 241.807 98.8647C241.716 98.9556 241.593 99.0067 241.464 99.0068Z" fill="#47A138"/>
<path d="M238.921 92.4683L238.921 92.4683L238.921 92.4651C238.893 92.0642 238.953 91.6621 239.097 91.287C239.241 90.9119 239.466 90.5729 239.755 90.294C240.044 90.0151 240.391 89.803 240.771 89.6727C241.151 89.5423 241.555 89.4969 241.955 89.5397L242.309 89.5775L242.46 89.2557L246.987 79.6531L249.473 83.7326L244.464 92.6082L244.422 92.6832L244.407 92.7681C244.291 93.4352 243.933 94.0365 243.403 94.4579C242.873 94.8794 242.207 95.0918 241.531 95.0549C240.855 95.0179 240.215 94.7342 239.734 94.2575C239.253 93.7808 238.964 93.1442 238.921 92.4683Z" stroke="black"/>
<path d="M251.808 37.8764L253.835 35.2324C253.835 35.2324 258.775 34.2264 259.614 41.0112L259.085 71.1747L248.261 88.2123L241.23 86.4173L250.422 66.1778L251.808 37.8764Z" fill="#CBCBCB"/>
<path d="M238.38 21.1255C238.526 21.0614 238.66 20.9587 238.772 20.8245C238.846 20.7287 238.903 20.6139 238.938 20.4879C238.973 20.3619 238.985 20.2279 238.974 20.0952C238.968 20.0006 238.945 19.9091 238.906 19.8279C238.866 19.7466 238.813 19.6778 238.749 19.6268C238.583 19.4991 238.364 19.5039 238.143 19.6323L238.118 17.3929L237.938 17.3961L237.968 20.0288L238.105 19.9165C238.263 19.7865 238.491 19.6922 238.655 19.8184C238.695 19.8519 238.729 19.8965 238.754 19.949C238.778 20.0015 238.793 20.0603 238.796 20.121C238.804 20.2198 238.794 20.3196 238.768 20.4134C238.742 20.5072 238.7 20.5929 238.646 20.6647C238.451 20.9067 238.163 20.9878 237.834 21.0619L237.866 21.2833C238.041 21.25 238.213 21.1972 238.38 21.1255Z" fill="black"/>
<path d="M241.494 17.8935L239.779 18.1532L239.828 18.4715L241.542 18.2118L241.494 17.8935Z" fill="black"/>
<path d="M232.731 17.8935L234.445 18.1532L234.397 18.4715L232.683 18.2118L232.731 17.8935Z" fill="black"/>
</svg>
