<svg width="56" height="56" viewBox="0 0 56 56" fill="none" xmlns="http://www.w3.org/2000/svg">
<path d="M4.21918 6.81082C1.88899 6.81082 0 8.72557 0 11.0875V44.9125C0 47.2745 1.88899 49.1892 4.21918 49.1892H9.20548C11.5357 49.1892 13.4247 47.2745 13.4247 44.9125V43.7461C13.4247 43.1019 12.9095 42.5797 12.274 42.5797C11.6385 42.5797 11.1233 43.1019 11.1233 43.7461V44.9125C11.1233 45.9861 10.2647 46.8564 9.20548 46.8564H4.21918C3.16 46.8564 2.30137 45.9861 2.30137 44.9125V11.0875C2.30137 10.0139 3.16 9.14358 4.21918 9.14358H9.20548C10.2647 9.14358 11.1233 10.0139 11.1233 11.0875V12.6427C11.1233 13.2869 11.6385 13.8091 12.274 13.8091C12.9095 13.8091 13.4247 13.2869 13.4247 12.6427V11.0875C13.4247 8.72557 11.5357 6.81082 9.20548 6.81082H4.21918Z" fill="#47A138"/>
<path fill-rule="evenodd" clip-rule="evenodd" d="M33.7534 7.19961C32.6394 7.19961 31.544 7.56735 30.5757 8.04704C29.5985 8.53109 28.6804 9.16446 27.9017 9.77767C27.1199 10.3934 26.4568 11.0062 25.9896 11.464C25.7554 11.6936 25.5687 11.886 25.4392 12.0225C25.3744 12.0908 25.3238 12.1452 25.2886 12.1835C25.271 12.2026 25.2572 12.2177 25.2474 12.2285L25.2357 12.2414L25.2322 12.2453L25.231 12.2467C25.231 12.2467 25.2301 12.2476 26.0822 13.0315L25.2301 12.2476C24.803 12.7246 24.8383 13.4622 25.3088 13.8952C25.7793 14.328 26.5068 14.2924 26.934 13.8157L26.9347 13.8149L26.9412 13.8078L26.9713 13.7748C26.999 13.7447 27.0416 13.6989 27.0978 13.6396C27.2104 13.5209 27.3774 13.3488 27.5894 13.141C28.0147 12.7241 28.6144 12.1705 29.3136 11.6198C30.0161 11.0666 30.7974 10.5336 31.5861 10.1429C32.3837 9.74781 33.1206 9.53237 33.7534 9.53237C37.0285 9.53238 40.8266 10.4617 43.8623 11.4232C45.3681 11.9002 46.6628 12.3774 47.5801 12.735C47.8693 12.8478 48.1206 12.9485 48.3288 13.0334V25.2877C46.7656 26.4886 45.5065 27.2458 44.2048 27.735C43.061 28.1648 41.8357 28.4059 40.274 28.5214V18.8634C40.274 16.5014 38.385 14.5867 36.0548 14.5867H7.67123V11.8651C7.67123 11.221 7.15605 10.6987 6.52055 10.6987C5.88504 10.6987 5.36986 11.221 5.36986 11.8651V44.9125C5.36986 45.5567 5.88504 46.0789 6.52055 46.0789C7.15605 46.0789 7.67123 45.5567 7.67123 44.9125V16.9194H36.0548C37.114 16.9194 37.9726 17.7898 37.9726 18.8634V20.8074H31.8356C29.0818 20.8074 26.8493 23.0702 26.8493 25.8617C26.8493 28.6531 29.0818 30.916 31.8356 30.916H37.9726V37.5254C37.9726 38.5991 37.114 39.4694 36.0548 39.4694H9.9726C9.3371 39.4694 8.82192 39.9916 8.82192 40.6358C8.82192 41.2799 9.3371 41.8021 9.9726 41.8021H36.0548C38.385 41.8021 40.274 39.8874 40.274 37.5254V30.8599C42.0557 30.7391 43.5569 30.4663 45.0048 29.9222C46.1444 29.494 47.2187 28.9098 48.3491 28.1419C48.5125 29.4863 49.6432 30.5272 51.0137 30.5272H53.3151C54.7979 30.5272 56 29.3087 56 27.8056V9.92116C56 8.41809 54.7979 7.19961 53.3151 7.19961H51.0137C49.5309 7.19961 48.3288 8.41809 48.3288 9.92116V10.5276C47.3815 10.1599 46.0695 9.67838 44.5487 9.19666C41.4474 8.2143 37.3824 7.19963 33.7534 7.19961ZM26.934 13.8157C26.934 13.8157 26.9343 13.8154 26.0822 13.0315L30.5757 8.04704L26.934 13.8157ZM31.8356 23.1401H37.9726V28.5832H31.8356C30.3528 28.5832 29.1507 27.3647 29.1507 25.8617C29.1507 24.3586 30.3528 23.1401 31.8356 23.1401ZM50.6301 9.92116C50.6301 9.70644 50.8019 9.53237 51.0137 9.53237H53.3151C53.5269 9.53237 53.6986 9.70644 53.6986 9.92116V27.8056C53.6986 28.0203 53.5269 28.1944 53.3151 28.1944H51.0137C50.8019 28.1944 50.6301 28.0203 50.6301 27.8056V9.92116Z" fill="#47A138"/>
<path d="M9.9726 18.4746C9.3371 18.4746 8.82192 18.9968 8.82192 19.641C8.82192 20.2851 9.3371 20.8074 9.9726 20.8074H14.9589C15.5944 20.8074 16.1096 20.2851 16.1096 19.641C16.1096 18.9968 15.5944 18.4746 14.9589 18.4746H9.9726Z" fill="#47A138"/>
<path d="M19.9452 19.641C19.9452 18.9968 19.43 18.4746 18.7945 18.4746C18.159 18.4746 17.6438 18.9968 17.6438 19.641V22.1487C17.2461 22.2677 16.8304 22.4559 16.4441 22.7379C15.5884 23.3623 14.9589 24.3929 14.9589 25.8617C14.9589 26.5798 15.1184 27.219 15.4714 27.7423C15.827 28.2694 16.3084 28.5743 16.7683 28.7452C17.4861 29.012 18.3154 28.986 18.6702 28.9749C18.7227 28.9733 18.7647 28.972 18.7945 28.972C18.9662 28.972 19.5022 29.0675 19.9657 29.3896C20.3678 29.6691 20.7123 30.1073 20.7123 30.916C20.7123 30.9643 20.7153 31.0126 20.7212 31.0606C20.7598 31.3733 20.7035 31.8449 20.463 32.2008C20.2704 32.4858 19.8536 32.8599 18.7945 32.8599C18.2317 32.8599 17.9134 32.7603 17.7399 32.669C17.5824 32.5862 17.4975 32.4869 17.4361 32.3679C17.2679 32.0421 17.2603 31.5884 17.2603 30.916C17.2603 30.2718 16.7451 29.7496 16.1096 29.7496C15.4741 29.7496 14.9589 30.2718 14.9589 30.916C14.9589 30.9522 14.9587 30.9918 14.9584 31.0343C14.955 31.571 14.9486 32.5806 15.3968 33.4491C15.6614 33.9619 16.0751 34.4215 16.68 34.7396C16.9723 34.8934 17.294 35.0061 17.6438 35.0807V36.7478C17.6438 37.392 18.159 37.9142 18.7945 37.9142C19.43 37.9142 19.9452 37.392 19.9452 36.7478V35.0795C21.0426 34.8495 21.8447 34.284 22.3616 33.5191C22.9755 32.6108 23.0869 31.5686 23.0132 30.8461C22.9912 29.2053 22.1944 28.1102 21.2672 27.4657C20.3882 26.8548 19.3899 26.6392 18.7945 26.6392C18.6846 26.6392 18.5956 26.6414 18.5126 26.6435C18.3802 26.6467 18.2627 26.6496 18.0993 26.6427C17.8684 26.6329 17.69 26.6032 17.5605 26.555C17.445 26.5121 17.3991 26.467 17.3711 26.4256C17.3405 26.3802 17.2603 26.2322 17.2603 25.8617C17.2603 25.1532 17.5257 24.823 17.7888 24.631C18.1105 24.3962 18.5312 24.3065 18.7945 24.3065C19.0579 24.3065 19.4785 24.3962 19.8003 24.631C20.0633 24.823 20.3288 25.1532 20.3288 25.8617C20.3288 26.5058 20.8439 27.028 21.4795 27.028C22.115 27.028 22.6301 26.5058 22.6301 25.8617C22.6301 24.3929 22.0006 23.3623 21.145 22.7379C20.7586 22.4559 20.3429 22.2677 19.9452 22.1487V19.641Z" fill="#47A138"/>
<path d="M22.2466 18.4746C21.6111 18.4746 21.0959 18.9968 21.0959 19.641C21.0959 20.2851 21.6111 20.8074 22.2466 20.8074H27.6164C28.2519 20.8074 28.7671 20.2851 28.7671 19.641C28.7671 18.9968 28.2519 18.4746 27.6164 18.4746H22.2466Z" fill="#47A138"/>
<path d="M34.2604 33.2097C34.6629 32.7112 34.5904 31.9763 34.0985 31.5684C33.6067 31.1605 32.8817 31.234 32.4793 31.7325L30.8688 33.7277C29.9218 34.901 28.5052 35.5815 27.0096 35.5815H21.863C21.2275 35.5815 20.7123 36.1037 20.7123 36.7478C20.7123 37.392 21.2275 37.9142 21.863 37.9142H27.0096C29.1954 37.9142 31.2658 36.9197 32.65 35.2049L34.2604 33.2097Z" fill="#47A138"/>
<path d="M9.9726 35.5815C9.3371 35.5815 8.82192 36.1037 8.82192 36.7478C8.82192 37.392 9.3371 37.9142 9.9726 37.9142H15.3425C15.978 37.9142 16.4932 37.392 16.4932 36.7478C16.4932 36.1037 15.978 35.5815 15.3425 35.5815H9.9726Z" fill="#47A138"/>
<path d="M26.0822 13.0315C26.9343 13.8154 26.934 13.8157 26.934 13.8157L30.5757 8.04704L26.0822 13.0315Z" fill="#47A138"/>
</svg>
