<svg width="58" height="56" viewBox="0 0 58 56" fill="none" xmlns="http://www.w3.org/2000/svg">
<path d="M16.2 36V40.8M16.2 36V30.4M16.2 36H5M16.2 40.8H3.4C2.07452 40.8 1 39.7255 1 38.4V38.4C1 37.0745 2.07452 36 3.4 36H5M16.2 40.8V45.2M16.2 30.4V30.4C16.2 28.8536 17.4536 27.6 19 27.6H25.4M16.2 30.4H29.8M29.8 30.4V30.4C29.8 28.8536 28.5464 27.6 27 27.6H25.4M29.8 30.4V42.4M29.8 45.2H16.2M29.8 45.2V47.2M29.8 45.2V42.4M16.2 45.2V46.2C16.2 47.8568 17.5431 49.2 19.2 49.2H27.8C28.9046 49.2 29.8 48.3046 29.8 47.2V47.2M5 36V10.4M53 36H49M53 36H54.6C55.9255 36 57 37.0745 57 38.4V38.4C57 39.7255 55.9255 40.8 54.6 40.8H49M53 36V10.4M49 36V20.8M49 36V40.8M25.4 27.6V20.8M25.4 20.8V20.6C25.4 18.9431 26.7431 17.6 28.4 17.6H46C47.6569 17.6 49 18.9431 49 20.6V20.8M25.4 20.8H49M29.8 47.2H46C47.6569 47.2 49 45.8568 49 44.2V42.4M29.8 42.4H49M49 42.4V40.8M53 10.4V9.79999C53 8.14313 51.6569 6.79999 50 6.79999H8C6.34315 6.79999 5 8.14313 5 9.79999V10.4M53 10.4H5" stroke="#47A138" stroke-width="2"/>
</svg>
