<svg width="56" height="56" viewBox="0 0 56 56" fill="none" xmlns="http://www.w3.org/2000/svg">
<path d="M33.1768 21.833L33.5034 22.8901H34.6099H50.0874C50.5657 22.8901 50.771 23.4971 50.3909 23.7874L37.7845 33.4179L36.953 34.0531L37.2619 35.0528L42.0244 50.4645C42.1681 50.9296 41.63 51.305 41.2432 51.0095L28.9106 41.5882L28 40.8926L27.0894 41.5882L14.7568 51.0095C14.37 51.305 13.8319 50.9296 13.9756 50.4645L18.7381 35.0528L19.047 34.0531L18.2155 33.4179L5.60906 23.7874C5.229 23.4971 5.43433 22.8901 5.91259 22.8901H21.3901H22.4966L22.8232 21.833L27.5223 6.62648C27.6675 6.15665 28.3325 6.15664 28.4777 6.62649L33.1768 21.833Z" stroke="#47A138" stroke-width="3"/>
</svg>
