<svg width="56" height="56" viewBox="0 0 56 56" fill="none" xmlns="http://www.w3.org/2000/svg">
<path d="M28 12.7059C27.0744 9.13726 23.6583 2 17.3981 2C11.1379 2 13.1909 9.13726 15 12.7059M28 12.7059H15M28 12.7059C28.4207 9.13726 31.1301 2 38.6019 2C46.0738 2 43.3139 9.13726 41 12.7059M28 12.7059H41M28 12.7059V26.4706M15 12.7059H6C3.79086 12.7059 2 14.4967 2 16.7059V26.4706H5.53398M41 12.7059H50C52.2091 12.7059 54 14.4967 54 16.7059V26.4706H50.9709M28 26.4706V54M28 26.4706H50.9709M28 26.4706H5.53398M28 54H50.9709V26.4706M28 54H5.53398V26.4706" stroke="#47A138" stroke-width="3"/>
</svg>
