<svg width="33" height="32" viewBox="0 0 33 32" fill="none" xmlns="http://www.w3.org/2000/svg">
<path d="M24.3352 6.49023C23.3752 6.49023 22.6052 7.27023 22.6052 8.22023C22.6052 9.17023 23.3852 9.96023 24.3352 9.96023C25.2852 9.96023 26.0652 9.18023 26.0652 8.22023C26.0652 7.26023 25.2852 6.49023 24.3352 6.49023Z" fill="white"/>
<path d="M16.6252 8.70996C12.6052 8.70996 9.33521 11.98 9.33521 16C9.33521 20.02 12.6052 23.29 16.6252 23.29C20.6452 23.29 23.9152 20.02 23.9152 16C23.9152 11.98 20.6452 8.70996 16.6252 8.70996ZM16.6252 20.67C14.0552 20.67 11.9552 18.58 11.9552 16C11.9552 13.42 14.0452 11.33 16.6252 11.33C19.2052 11.33 21.2952 13.42 21.2952 16C21.2952 18.58 19.2052 20.67 16.6252 20.67V20.67Z" fill="white"/>
<path d="M22.4151 30.8002H10.5951C5.69508 30.8002 1.70508 26.8102 1.70508 21.9102V10.0902C1.70508 5.1902 5.69508 1.2002 10.5951 1.2002H22.4051C27.3051 1.2002 31.2951 5.1902 31.2951 10.0902V21.9102C31.2951 26.8102 27.3051 30.8002 22.4051 30.8002H22.4151ZM10.5951 3.9902C7.22508 3.9902 4.49508 6.7302 4.49508 10.0902V21.9102C4.49508 25.2802 7.23508 28.0102 10.5951 28.0102H22.4051C25.7751 28.0102 28.5151 25.2702 28.5151 21.9102V10.0902C28.5151 6.7202 25.7751 3.9902 22.4051 3.9902H10.5951Z" fill="white"/>
</svg>
