<svg width="33" height="32" viewBox="0 0 33 32" fill="none" xmlns="http://www.w3.org/2000/svg">
<path d="M1.74511 30.8002L3.86511 22.8802C2.66511 20.7102 2.03511 18.2802 2.03511 15.8202C2.03511 7.76019 8.59511 1.2002 16.6451 1.2002C24.6951 1.2002 31.2651 7.76019 31.2651 15.8202C31.2651 23.8802 24.7051 30.4402 16.6451 30.4402C14.2251 30.4402 11.8351 29.8302 9.69511 28.6702L1.73511 30.8002H1.74511ZM10.0951 25.7002L10.5951 26.0002C12.4351 27.1002 14.5251 27.6802 16.6451 27.6802C23.1851 27.6802 28.4951 22.3602 28.4951 15.8302C28.4951 9.3002 23.1851 3.9702 16.6451 3.9702C10.1051 3.9702 4.79511 9.2802 4.79511 15.8202C4.79511 17.9802 5.39511 20.1002 6.52511 21.9702L6.83511 22.4702L5.65511 26.8902L10.0951 25.7002V25.7002Z" fill="white"/>
<path fill-rule="evenodd" clip-rule="evenodd" d="M22.0851 17.8503C21.4851 17.4903 20.7051 17.0903 19.9951 17.3803C19.4551 17.6003 19.1051 18.4503 18.7551 18.8903C18.5751 19.1103 18.3551 19.1503 18.0851 19.0403C16.0451 18.2303 14.4851 16.8603 13.3551 14.9903C13.1651 14.7003 13.1951 14.4703 13.4251 14.2003C13.7651 13.8003 14.1951 13.3403 14.2851 12.8003C14.3751 12.2603 14.1251 11.6303 13.9051 11.1503C13.6151 10.5403 13.3051 9.66033 12.6851 9.31033C12.1151 8.99033 11.3751 9.17033 10.8751 9.58033C10.0051 10.2903 9.58515 11.4003 9.59515 12.5003C9.59515 12.8103 9.63514 13.1203 9.70514 13.4303C9.88514 14.1603 10.2151 14.8303 10.5951 15.4803C10.8751 15.9703 11.1851 16.4403 11.5251 16.8903C12.6151 18.3703 13.9751 19.6603 15.5451 20.6203C16.3351 21.1003 17.1751 21.5203 18.0551 21.8103C19.0351 22.1303 19.9151 22.4703 20.9751 22.2703C22.0851 22.0603 23.1851 21.3703 23.6251 20.3003C23.7551 19.9803 23.8251 19.6303 23.7451 19.3003C23.5951 18.6103 22.6551 18.2003 22.0951 17.8603L22.0851 17.8503Z" fill="white"/>
</svg>
